#!OML:ASF F:\VICON\USERDATA\INSTALL\rory3\rory3.ASF
:FULLY-SPECIFIED
:DEGREES
49
root 1.00369 17.3875 -23.0055 -0.514488 -0.320186 6.85341
lowerback 6.50286 -1.39139 -6.79841
upperback 1.42293 -2.28399 1.06856
thorax -1.85955 -1.1133 5.10991
lowerneck -14.3143 -1.38746 -9.03213
upperneck 19.6322 -0.554315 3.4872
head 8.52405 -0.576079 2.61338
rclavicle 9.93923e-017 9.54166e-015
rhumerus -34.2273 -12.3349 -78.967
rradius 26.4816
rwrist 10.1268
rhand -14.101 19.9967
rfingers 7.12502
rthumb 12.0317 -9.63742
lclavicle 9.93923e-017 9.54166e-015
lhumerus -24.7083 3.08056 83.0541
lradius 30.9502
lwrist -13.5131
lhand -13.0719 27.841
lfingers 7.12502
lthumb 13.0238 57.4144
rfemur -37.333 -1.79152 14.514
rtibia 43.4857
rfoot -7.26495 -12.8239
rtoes 1.41178
lfemur 9.04988 -2.16444 -30.9449
ltibia 11.1797
lfoot -14.2411 1.33262
ltoes -5.92442
50
root 0.991888 17.3926 -22.8126 -0.425606 -0.0444159 7.03999
lowerback 6.48446 -1.61224 -7.02944
upperback 1.37415 -2.59283 1.10358
thorax -1.84506 -1.2658 5.29844
lowerneck -14.1521 -1.48751 -9.38813
upperneck 19.7916 -0.63476 3.52304
head 8.5576 -0.642003 2.67713
rclavicle -3.47873e-015 7.15625e-015
rhumerus -34.3298 -12.5639 -78.722
rradius 25.812
rwrist 10.8903
rhand -13.7396 20.3651
rfingers 7.12502
rthumb 12.3802 -9.24831
lclavicle -3.47873e-015 7.15625e-015
lhumerus -24.5411 2.99509 82.9403
lradius 31.5697
lwrist -13.1221
lhand -13.2902 27.933
lfingers 7.12502
lthumb 12.8135 57.5197
rfemur -37.1815 -1.39356 14.0563
rtibia 40.5507
rfoot -6.62181 -13.4392
rtoes 2.85543
lfemur 10.8087 -2.44079 -31.1961
ltibia 8.87542
lfoot -13.3288 1.50833
ltoes -6.4608
51
root 0.97602 17.3891 -22.6275 -0.388398 0.111665 7.15411
lowerback 6.61933 -1.72565 -7.26357
upperback 1.33947 -2.76993 1.1527
thorax -1.91715 -1.3493 5.50101
lowerneck -14.0894 -1.55454 -9.65545
upperneck 19.8815 -0.718932 3.73505
head 8.58447 -0.682595 2.7854
rclavicle -3.27995e-015 -8.74653e-015
rhumerus -34.4327 -12.4223 -78.7485
rradius 25.38
rwrist 10.7832
rhand -12.4437 17.6248
rfingers 7.12502
rthumb 13.6294 -11.909
lclavicle -3.27995e-015 -8.74653e-015
lhumerus -24.0646 2.97623 82.8271
lradius 31.7984
lwrist -13.1003
lhand -13.7198 28.165
lfingers 7.12502
lthumb 12.3992 57.7773
rfemur -37.0175 -0.682547 13.6194
rtibia 37.7014
rfoot -5.87602 -14.0821
rtoes 3.07428
lfemur 13.3278 -2.59355 -31.3441
ltibia 5.30497
lfoot -11.8287 1.45965
ltoes -5.9582
52
root 0.96617 17.3838 -22.4374 -0.228764 -0.0143132 7.19735
lowerback 6.57671 -1.73694 -7.27484
upperback 1.32706 -2.7827 1.15915
thorax -1.90352 -1.35583 5.5134
lowerneck -14.2115 -1.52251 -9.69499
upperneck 19.9258 -0.663388 3.78527
head 8.61779 -0.654472 2.81643
rclavicle 1.35174e-014 1.82882e-014
rhumerus -34.442 -12.6996 -78.6435
rradius 24.8344
rwrist 11.0802
rhand -10.7094 14.006
rfingers 7.12502
rthumb 15.3004 -15.408
lclavicle 1.35174e-014 1.82882e-014
lhumerus -23.6547 2.7473 82.7241
lradius 32.2518
lwrist -12.9902
lhand -13.4544 28.3155
lfingers 7.12502
lthumb 12.6551 57.9121
rfemur -37.0072 0.160729 13.2654
rtibia 34.9941
rfoot -5.46545 -14.5608
rtoes 3.42213
lfemur 16.6806 -2.48455 -31.444
ltibia 2.22639e-014
lfoot -9.68431 1.14865
ltoes -5.88546
53
root 0.955334 17.3774 -22.2391 -0.0753506 -0.161534 7.23013
lowerback 6.30622 -1.83729 -7.33939
upperback 1.35484 -2.89786 1.20511
thorax -1.70068 -1.42253 5.59198
lowerneck -14.219 -1.31456 -9.7107
upperneck 19.9894 -0.367418 3.76706
head 8.61876 -0.519821 2.84769
rclavicle -8.15017e-015 1.59028e-015
rhumerus -34.3359 -13.441 -78.2653
rradius 24.017
rwrist 12.2039
rhand -9.55355 11.6557
rfingers 7.12502
rthumb 16.4135 -17.6699
lclavicle -8.15017e-015 1.59028e-015
lhumerus -23.4684 2.6567 82.5889
lradius 32.8576
lwrist -12.7277
lhand -13.6729 27.9807
lfingers 7.12502
lthumb 12.4445 57.5902
rfemur -36.9548 1.06689 12.8569
rtibia 32.5025
rfoot -5.89373 -15.1285
rtoes 4.55259
lfemur 17.189 -2.36404 -31.4985
ltibia -3.49861e-014
lfoot -9.91655 1.38455
ltoes -6.00594
54
root 0.937291 17.3666 -22.037 0.107725 0.129489 7.27129
lowerback 5.97509 -2.02401 -7.35168
upperback 1.37479 -3.12114 1.19229
thorax -1.46156 -1.54466 5.58144
lowerneck -14.3381 -1.21725 -9.73634
upperneck 20.1624 -0.227251 3.82572
head 8.68861 -0.45329 2.89143
rclavicle -4.31363e-014 4.77083e-015
rhumerus -34.3876 -14.1297 -77.9875
rradius 23.4245
rwrist 13.0642
rhand -9.71803 11.4288
rfingers 7.12502
rthumb 16.2552 -17.9098
lclavicle -4.31363e-014 4.77083e-015
lhumerus -23.2507 2.19414 82.4296
lradius 33.2998
lwrist -12.3442
lhand -13.8644 28.2367
lfingers 7.12502
lthumb 12.2598 57.8574
rfemur -36.8634 1.95364 12.2551
rtibia 30.3211
rfoot -7.09288 -16.115
rtoes 5.52453
lfemur 17.6985 -2.68576 -31.5347
ltibia 9.54166e-015
lfoot -9.95337 1.41398
ltoes -7.27576
